<svg width="222" height="94" viewBox="0 0 222 94" fill="none" xmlns="http://www.w3.org/2000/svg">
<path fill-rule="evenodd" clip-rule="evenodd" d="M41.9039 26.3989C41.6698 26.4298 41.4415 26.46 41.219 26.4886C40.5047 26.5803 39.8512 26.0756 39.7594 25.3612C39.6677 24.6469 40.1724 23.9934 40.8868 23.9016C41.1099 23.873 41.3427 23.842 41.5848 23.8099C44.3789 23.4386 48.4078 22.9032 52.9514 23.8258C57.9382 24.8384 63.4643 27.5811 68.812 33.955C69.2749 34.5068 69.2029 35.3293 68.6511 35.7923C68.0993 36.2552 67.2768 36.1832 66.8139 35.6314C61.833 29.6947 56.8221 27.2732 52.4324 26.3818C48.3352 25.5499 44.709 26.0286 41.9039 26.3989Z" fill="#ED2725"/>
<path fill-rule="evenodd" clip-rule="evenodd" d="M62.2176 70.2658C66.7094 66.7107 69.3018 62.0359 70.3296 58.9037C70.5541 58.2194 71.2909 57.8466 71.9753 58.0712C72.6596 58.2957 73.0323 59.0325 72.8078 59.7169C71.6447 63.2615 68.786 68.3935 63.8362 72.3109C58.8461 76.2603 51.7717 78.9384 42.3243 77.5539C41.6117 77.4495 41.1187 76.7871 41.2231 76.0745C41.3275 75.3619 41.9899 74.8688 42.7025 74.9733C51.4082 76.249 57.766 73.7889 62.2176 70.2658Z" fill="#ED2725"/>
<path fill-rule="evenodd" clip-rule="evenodd" d="M25.2598 64.6725C24.6318 65.0252 23.8369 64.802 23.4842 64.174C19.4895 57.0601 19.3845 50.1026 20.4736 44.6572C20.6148 43.951 21.3018 43.493 22.0081 43.6342C22.7143 43.7755 23.1723 44.4625 23.0311 45.1687C22.0336 50.1561 22.1372 56.4483 25.7584 62.8969C26.1111 63.5249 25.8878 64.3199 25.2598 64.6725Z" fill="#ED2725"/>
<path fill-rule="evenodd" clip-rule="evenodd" d="M31.5105 22.6754C31.4839 21.7523 31.7156 21.0001 31.7156 20.1352C31.7156 11.4924 24.7093 4.48608 16.0665 4.48608C7.42371 4.48608 0.417358 11.4924 0.417358 20.1352C0.417358 28.778 7.42371 35.7843 16.0665 35.7843C16.9356 35.7843 17.7879 35.6278 18.6187 35.5773C18.672 35.5763 18.7255 35.5758 18.779 35.5758C23.3885 35.5758 27.1252 39.3125 27.1252 43.922C27.1252 44.1684 27.1252 44.5479 27.0936 44.6533L27.0785 44.7147L27.0634 44.7761C26.6557 46.7909 26.2906 48.5035 26.2906 50.5988C26.2906 55.0501 27.6844 59.1759 30.0595 62.5634C30.5153 63.3381 30.7767 64.2409 30.7767 65.2047C30.7767 67.5265 29.2597 69.4941 27.1628 70.1703C22.7435 70.9427 19.8223 73.8213 19.8223 77.9801C19.8223 82.3015 23.3255 85.8047 27.6468 85.8047C31.9682 85.8047 35.4714 82.3015 35.4714 77.9801C35.4714 77.7352 35.4602 77.4928 35.4381 77.2536C35.4381 77.2536 35.4322 77.1845 35.4285 77.1552C35.4248 77.1259 35.4204 77.0744 35.4052 76.9575C35.3769 76.7406 35.3168 76.5242 35.2939 76.3154C35.2733 76.127 35.2628 75.9356 35.2628 75.7418C35.2628 72.8609 37.5982 70.5254 40.4791 70.5254C40.6713 70.5254 40.8611 70.5358 41.0479 70.5561C43.0873 70.9427 45.0308 71.4644 47.1561 71.4644C56.9082 71.4644 65.0976 64.7741 67.3852 55.733C68.2303 53.1027 70.5582 51.9551 73.1337 51.9551C74.5113 51.9551 75.785 52.4001 76.8188 53.1543C76.8655 53.19 76.9125 53.2253 76.9598 53.2602C76.9864 53.2807 77.0128 53.3015 77.0391 53.3225L77.0383 53.3176C78.7558 54.5608 80.8669 55.2936 83.1491 55.2936C88.911 55.2936 93.5818 50.6227 93.5818 44.8608C93.5818 39.099 88.911 34.4281 83.1491 34.4281C79.3689 34.4281 76.3156 36.4625 74.2282 39.4487C73.0802 40.7823 71.3798 41.6267 69.4822 41.6267C67.6887 41.6267 66.0394 41.0007 64.9301 39.6637C61.2563 33.7051 54.67 29.7333 47.1561 29.7333C44.9318 29.7333 42.9308 30.2028 40.7787 30.726C40.4748 30.7595 40.166 30.7767 39.8532 30.7767C35.3256 30.7767 31.6401 27.1716 31.5105 22.6754Z" fill="url(#paint0_linear_683_3606)"/>
<path d="M123.301 37.8731H128.324V57.3213H123.301V55.0264C121.795 56.9194 119.679 57.8659 116.954 57.8659C114.358 57.8659 112.125 56.8805 110.256 54.9097C108.413 52.9131 107.491 50.4755 107.491 47.5972C107.491 44.7188 108.413 42.2943 110.256 40.3235C112.125 38.3268 114.358 37.3285 116.954 37.3285C119.679 37.3285 121.795 38.275 123.301 40.1679V37.8731ZM114.033 51.5646C115.046 52.5759 116.331 53.0816 117.888 53.0816C119.446 53.0816 120.731 52.5759 121.743 51.5646C122.781 50.5274 123.301 49.2049 123.301 47.5972C123.301 45.9895 122.781 44.6799 121.743 43.6686C120.731 42.6314 119.446 42.1128 117.888 42.1128C116.331 42.1128 115.046 42.6314 114.033 43.6686C113.021 44.6799 112.515 45.9895 112.515 47.5972C112.515 49.2049 113.021 50.5274 114.033 51.5646Z" fill="#FDF8F8"/>
<path d="M144.21 37.3285C146.832 37.3285 149.064 38.3268 150.907 40.3235C152.776 42.2943 153.711 44.7188 153.711 47.5972C153.711 50.4755 152.776 52.9131 150.907 54.9097C149.064 56.8805 146.832 57.8659 144.21 57.8659C141.484 57.8659 139.382 56.9194 137.902 55.0264V65.1006H132.879V37.8731H137.902V40.1679C139.382 38.275 141.484 37.3285 144.21 37.3285ZM139.42 51.5646C140.433 52.5759 141.718 53.0816 143.275 53.0816C144.833 53.0816 146.118 52.5759 147.13 51.5646C148.169 50.5274 148.688 49.2049 148.688 47.5972C148.688 45.9895 148.169 44.6799 147.13 43.6686C146.118 42.6314 144.833 42.1128 143.275 42.1128C141.718 42.1128 140.433 42.6314 139.42 43.6686C138.408 44.6799 137.902 45.9895 137.902 47.5972C137.902 49.2049 138.408 50.5274 139.42 51.5646Z" fill="#FDF8F8"/>
<path d="M159.746 35.5393C158.915 35.5393 158.188 35.2411 157.565 34.6446C156.968 34.0223 156.669 33.2962 156.669 32.4664C156.669 31.6366 156.968 30.9106 157.565 30.2882C158.188 29.6659 158.915 29.3547 159.746 29.3547C160.602 29.3547 161.329 29.6659 161.926 30.2882C162.549 30.9106 162.861 31.6366 162.861 32.4664C162.861 33.2962 162.549 34.0223 161.926 34.6446C161.329 35.2411 160.602 35.5393 159.746 35.5393ZM157.254 57.3213V37.8731H162.277V57.3213H157.254Z" fill="#FDF8F8"/>
<path d="M179.724 37.8731H184.747V57.3213H179.724V55.1431C178.504 56.9583 176.57 57.8659 173.922 57.8659C171.793 57.8659 170.028 57.1528 168.626 55.7266C167.251 54.3004 166.563 52.3296 166.563 49.8143V37.8731H171.586V49.1919C171.586 50.4885 171.936 51.4868 172.637 52.187C173.338 52.8612 174.273 53.1983 175.441 53.1983C176.739 53.1983 177.777 52.7964 178.556 51.9925C179.335 51.1886 179.724 49.9828 179.724 48.3751V37.8731Z" fill="#FDF8F8"/>
<path d="M210.881 37.3285C213.113 37.3285 214.892 38.0546 216.216 39.5067C217.565 40.9588 218.24 42.9037 218.24 45.3412V57.3213H213.217V45.6913C213.217 44.5244 212.932 43.6168 212.361 42.9685C211.79 42.3202 210.985 41.9961 209.946 41.9961C208.804 41.9961 207.909 42.3721 207.26 43.1241C206.637 43.8761 206.325 44.9652 206.325 46.3914V57.3213H201.302V45.6913C201.302 44.5244 201.016 43.6168 200.445 42.9685C199.874 42.3202 199.069 41.9961 198.031 41.9961C196.915 41.9961 196.019 42.3721 195.344 43.1241C194.695 43.8761 194.371 44.9652 194.371 46.3914V57.3213H189.348V37.8731H194.371V39.9346C195.539 38.1972 197.343 37.3285 199.783 37.3285C202.172 37.3285 203.937 38.262 205.079 40.1291C206.377 38.262 208.311 37.3285 210.881 37.3285Z" fill="#FDF8F8"/>
<defs>
<linearGradient id="paint0_linear_683_3606" x1="8.15925" y1="11.7854" x2="58.9272" y2="68.2518" gradientUnits="userSpaceOnUse">
<stop stop-color="#F46C22"/>
<stop offset="1" stop-color="#ED2725"/>
</linearGradient>
</defs>
</svg>
