<svg width="277" height="288" viewBox="0 0 277 288" fill="none" xmlns="http://www.w3.org/2000/svg">
<rect x="1.25" y="40.25" width="168.5" height="246.5" rx="8.75" fill="#F7EDFC" stroke="black" stroke-width="2.5"/>
<path d="M183.584 259.142H75.112C65.5756 259.142 57.8452 251.412 57.8452 241.875V22.7722C57.8452 13.2357 65.5756 5.50537 75.112 5.50537H183.584C193.121 5.50537 200.851 13.2357 200.851 22.7722V241.875C200.851 251.412 193.121 259.142 183.584 259.142Z" fill="black"/>
<path d="M57.8457 30.2017H200.849V234.445H57.8457V30.2017Z" fill="white"/>
<path d="M183.584 262.019H75.1114C64.0037 262.019 54.9668 252.982 54.9668 241.875V22.7716C54.9668 11.6638 64.0037 2.62695 75.1114 2.62695H183.584C194.692 2.62695 203.729 11.6638 203.729 22.7716V241.875C203.728 252.982 194.692 262.019 183.584 262.019ZM75.1114 8.38256C67.1773 8.38256 60.7224 14.8375 60.7224 22.7716V241.875C60.7224 249.809 67.1773 256.264 75.1114 256.264H183.584C191.518 256.264 197.973 249.809 197.973 241.875V22.7716C197.973 14.8375 191.518 8.38256 183.584 8.38256H75.1114Z" fill="#0A0F26"/>
<path d="M139.41 21.258H119.285C117.695 21.258 116.407 19.9694 116.407 18.3802C116.407 16.7911 117.695 15.5024 119.285 15.5024H139.41C140.999 15.5024 142.287 16.7911 142.287 18.3802C142.287 19.9694 140.999 21.258 139.41 21.258Z" fill="white"/>
<path d="M152.838 21.2584C154.428 21.2584 155.717 19.9694 155.717 18.3794C155.717 16.7894 154.428 15.5005 152.838 15.5005C151.248 15.5005 149.959 16.7894 149.959 18.3794C149.959 19.9694 151.248 21.2584 152.838 21.2584Z" fill="white"/>
<path d="M165.637 141.934H93.057C87.7488 141.934 83.4458 137.631 83.4458 132.323C83.4458 127.014 87.7488 122.711 93.057 122.711H165.637C170.945 122.711 175.248 127.014 175.248 132.323C175.248 137.631 170.945 141.934 165.637 141.934Z" fill="#929CF9" stroke="black" stroke-width="3"/>
<path d="M165.637 172.639H93.057C87.7488 172.639 83.4458 168.336 83.4458 163.028C83.4458 157.72 87.7488 153.417 93.057 153.417H165.637C170.945 153.417 175.248 157.72 175.248 163.028C175.248 168.336 170.945 172.639 165.637 172.639Z" fill="#6AD69D" stroke="black" stroke-width="3"/>
<path d="M119.177 220.786H84.8236C83.2345 220.786 81.9458 219.497 81.9458 217.908V209.602C81.9458 208.013 83.2345 206.725 84.8236 206.725H119.177C120.766 206.725 122.055 208.013 122.055 209.602V217.908C122.055 219.497 120.767 220.786 119.177 220.786Z" fill="#000A37"/>
<path d="M124.085 99.561H86.2816C84.6925 99.561 83.4038 100.85 83.4038 102.439C83.4038 104.028 84.6925 105.317 86.2816 105.317H124.085C125.674 105.317 126.963 104.028 126.963 102.439C126.963 100.85 125.675 99.561 124.085 99.561Z" fill="#000A37"/>
<path d="M124.085 88.3794H86.2816C84.6925 88.3794 83.4038 89.6681 83.4038 91.2572C83.4038 92.8463 84.6925 94.135 86.2816 94.135H124.085C125.674 94.135 126.963 92.8463 126.963 91.2572C126.963 89.6681 125.675 88.3794 124.085 88.3794Z" fill="#000A37"/>
<path d="M93.0047 74.9424H86.2816C84.6925 74.9424 83.4038 76.2311 83.4038 77.8202C83.4038 79.4093 84.6925 80.698 86.2816 80.698H93.0047C94.5939 80.698 95.8825 79.4093 95.8825 77.8202C95.8825 76.2311 94.5944 74.9424 93.0047 74.9424Z" fill="#1E2A5A"/>
<path d="M136.431 61.3494H89.2601C86.8544 61.3494 84.9038 59.3992 84.9038 56.993C84.9038 54.5873 86.854 52.6367 89.2601 52.6367H136.431C138.837 52.6367 140.788 54.5869 140.788 56.993C140.788 59.3993 138.838 61.3494 136.431 61.3494Z" fill="#6AD69D" stroke="black" stroke-width="3"/>
<path d="M234.197 187.729C230.213 187.729 226.971 184.486 226.971 180.503C226.971 176.519 230.213 173.277 234.197 173.277C238.18 173.277 241.422 176.519 241.422 180.503C241.422 184.487 238.18 187.729 234.197 187.729ZM234.197 177.033C232.283 177.033 230.727 178.589 230.727 180.503C230.727 182.418 232.283 183.974 234.197 183.974C236.111 183.974 237.667 182.418 237.667 180.503C237.667 178.589 236.111 177.033 234.197 177.033Z" fill="#D99BF9" stroke="black" stroke-width="2"/>
<path d="M23.97 207.74C19.9863 207.74 16.7441 204.498 16.7441 200.514C16.7441 196.53 19.9863 193.288 23.97 193.288C27.9531 193.288 31.1954 196.53 31.1954 200.514C31.1954 204.498 27.9531 207.74 23.97 207.74ZM23.97 197.044C22.0561 197.044 20.4997 198.6 20.4997 200.515C20.4997 202.429 22.0561 203.985 23.97 203.985C25.8843 203.985 27.4398 202.429 27.4398 200.515C27.4398 198.6 25.8843 197.044 23.97 197.044Z" fill="#D99BF9" stroke="black" stroke-width="2"/>
<path d="M32.8196 184.108C28.8365 184.108 25.5942 180.865 25.5942 176.882C25.5942 172.898 28.8365 169.656 32.8196 169.656C36.8033 169.656 40.0455 172.898 40.0455 176.882C40.0455 180.865 36.8033 184.108 32.8196 184.108ZM32.8196 173.412C30.9054 173.412 29.3498 174.968 29.3498 176.882C29.3498 178.797 30.9054 180.353 32.8196 180.353C34.7335 180.353 36.2899 178.797 36.2899 176.882C36.2899 174.967 34.7335 173.412 32.8196 173.412Z" fill="#1C1C1C" stroke="black" stroke-width="2"/>
<path d="M227.866 216.684C226.276 216.684 224.988 215.395 224.988 213.806C224.988 211.901 223.44 210.352 221.535 210.352C219.945 210.352 218.657 209.064 218.657 207.475C218.657 205.885 219.945 204.597 221.535 204.597C223.44 204.597 224.988 203.048 224.988 201.143C224.988 199.554 226.276 198.266 227.866 198.266C229.456 198.266 230.744 199.554 230.744 201.143C230.744 203.048 232.293 204.597 234.197 204.597C235.787 204.597 237.075 205.885 237.075 207.475C237.075 209.064 235.787 210.352 234.197 210.352C232.293 210.352 230.744 211.901 230.744 213.806C230.744 215.395 229.456 216.684 227.866 216.684Z" fill="#1C1C1C"/>
<path d="M28.2148 84.1518C26.6251 84.1518 25.337 82.8631 25.337 81.274C25.337 79.3695 23.7882 77.8207 21.8837 77.8207C20.294 77.8207 19.0059 76.532 19.0059 74.9429C19.0059 73.3537 20.294 72.065 21.8837 72.065C23.7882 72.065 25.337 70.5162 25.337 68.6117C25.337 67.0226 26.6251 65.7339 28.2148 65.7339C29.8045 65.7339 31.0926 67.0226 31.0926 68.6117C31.0926 70.5162 32.6415 72.065 34.546 72.065C36.1357 72.065 37.4238 73.3537 37.4238 74.9429C37.4238 76.532 36.1357 77.8207 34.546 77.8207C32.6415 77.8207 31.0926 79.3695 31.0926 81.274C31.0926 82.8631 29.8045 84.1518 28.2148 84.1518Z" fill="#1C1C1C"/>
<g clip-path="url(#clip0_251_461)">
<path d="M246.956 16.0029H185.514C177.5 16.0029 170.942 22.5601 170.942 30.5743V35.5324H226.522C234.536 35.5324 241.093 42.0896 241.093 50.1037V86.4312H246.956C254.97 86.4312 261.528 79.874 261.528 71.8599V30.5743C261.528 22.5599 254.97 16.0029 246.956 16.0029Z" fill="black"/>
<path d="M180.498 22.1792H241.94C249.126 22.1792 255.011 28.0648 255.011 35.2503V76.5357C255.011 83.7215 249.126 89.607 241.94 89.607C240.119 89.607 238.375 90.4125 237.21 91.8361C230.7 99.7914 222.951 105.438 217.484 108.822L218.273 110.097L217.484 108.822C216.861 109.207 216.095 108.55 216.434 107.857C218.699 103.237 220.232 98.7271 221.234 94.4606C221.82 91.9676 219.91 89.6073 217.374 89.6073H180.498C173.312 89.6073 167.426 83.7217 167.426 76.5359V35.2505C167.426 28.0648 173.312 22.1792 180.498 22.1792Z" fill="#D99CF9" stroke="black" stroke-width="3"/>
<path d="M186.125 61.9142C188.795 61.9142 190.96 59.7494 190.96 57.0789C190.96 54.4085 188.795 52.2437 186.125 52.2437C183.454 52.2437 181.29 54.4085 181.29 57.0789C181.29 59.7494 183.454 61.9142 186.125 61.9142Z" fill="black"/>
<path d="M201.742 61.9142C204.413 61.9142 206.578 59.7494 206.578 57.0789C206.578 54.4085 204.413 52.2437 201.742 52.2437C199.072 52.2437 196.907 54.4085 196.907 57.0789C196.907 59.7494 199.072 61.9142 201.742 61.9142Z" fill="black"/>
<path d="M217.36 61.9142C220.03 61.9142 222.195 59.7494 222.195 57.0789C222.195 54.4085 220.03 52.2437 217.36 52.2437C214.689 52.2437 212.524 54.4085 212.524 57.0789C212.524 59.7494 214.689 61.9142 217.36 61.9142Z" fill="black"/>
<path d="M232.977 61.9142C235.648 61.9142 237.813 59.7494 237.813 57.0789C237.813 54.4085 235.648 52.2437 232.977 52.2437C230.307 52.2437 228.142 54.4085 228.142 57.0789C228.142 59.7494 230.307 61.9142 232.977 61.9142Z" fill="black"/>
</g>
<defs>
<clipPath id="clip0_251_461">
<rect width="110.353" height="110.353" fill="white" transform="translate(165.926 0.95459)"/>
</clipPath>
</defs>
</svg>
